<svg xmlns="http://www.w3.org/2000/svg" width="512" height="512" viewBox="0 0 135.467 135.467"><g transform="translate(0 -161.533)"><circle cx="67.552" cy="229.314" r="67.733" fill="#b3b3b3"/><g style="line-height:1.25"><path d="M97.356 183.102c-.604-3.118-2.416-5.288-5.316-5.288-3.02 0-5.074 1.356-6.041 4.339l-19.332 60.33-17.036-60.06c-.846-2.846-2.658-4.609-5.558-4.609s-5.317 1.898-5.92 5.288l-14.983 76.87c-.483 2.304-.483 3.795-.483 4.473 0 2.576 1.812 5.694 5.679 5.694 3.262 0 5.316-2.033 5.92-5.287l10.633-54.5 15.707 55.178c.966 3.254 3.141 4.61 5.558 4.61 2.658 0 4.833-1.627 5.678-4.339l18.607-57.483 11.116 56.67c-12.625 1.78 3.327 9.561 6.468 9.561 3.504 0 19.418-14.475 5.386-11.047-.922.225-.375-1.768-.738-3.666z" style="line-height:201.77864075px;-inkscape-font-specification:'Comic Neue Bold'" font-weight="700" font-size="127.986" font-family="Comic Neue" aria-label="M" letter-spacing="0" word-spacing="0" fill="#4d4d4d" stroke-width=".667"/></g></g></svg>